<svg width="101" height="50" viewBox="0 0 101 50" fill="none" xmlns="http://www.w3.org/2000/svg">
<path d="M84.2292 4.16666H66.7708C59.1875 4.16666 54.6667 8.68749 54.6667 16.2708V33.7083C54.6667 41.3125 59.1875 45.8333 66.7708 45.8333H84.2083C91.7917 45.8333 96.3125 41.3125 96.3125 33.7292V16.2708C96.3333 8.68749 91.8125 4.16666 84.2292 4.16666ZM81.3125 26.1042L73.9583 33.4583C73.6458 33.7708 73.25 33.9167 72.8542 33.9167C72.4583 33.9167 72.0625 33.7708 71.75 33.4583C71.1458 32.8542 71.1458 31.8542 71.75 31.25L78 25L71.75 18.75C71.1458 18.1458 71.1458 17.1458 71.75 16.5417C72.3542 15.9375 73.3542 15.9375 73.9583 16.5417L81.3125 23.8958C81.9375 24.5 81.9375 25.5 81.3125 26.1042Z" fill="#177BA5"/>
<path d="M34.2292 4.16666H16.7708C9.18749 4.16666 4.66666 8.68749 4.66666 16.2708V33.7083C4.66666 41.3125 9.18749 45.8333 16.7708 45.8333H34.2083C41.7917 45.8333 46.3125 41.3125 46.3125 33.7292V16.2708C46.3333 8.68749 41.8125 4.16666 34.2292 4.16666ZM29.2292 31.25C29.8333 31.8542 29.8333 32.8542 29.2292 33.4583C28.9167 33.7708 28.5208 33.9167 28.125 33.9167C27.7292 33.9167 27.3333 33.7708 27.0208 33.4583L19.6667 26.1042C19.0625 25.5 19.0625 24.5 19.6667 23.8958L27.0208 16.5417C27.625 15.9375 28.625 15.9375 29.2292 16.5417C29.8333 17.1458 29.8333 18.1458 29.2292 18.75L22.9792 25L29.2292 31.25Z" fill="#292D32" fill-opacity="0.5"/>
</svg>
